<?xml version="1.0" standalone="no"?>
<svg
  width="600"
  height="600"
  viewBox="0 0 600 600"
  xmlns="http://www.w3.org/2000/svg"
>
  <g transform="translate(300,300)">
    <path d="M90.8,-117.8C116.1,-87.1,133.9,-56.9,144.3,-21.9C154.8,13.2,157.9,53.1,147.1,97.2C136.2,141.2,111.4,189.5,72.1,208.1C32.8,226.8,-20.9,215.8,-61.6,191.4C-102.2,166.9,-129.9,129,-165.3,86.4C-200.6,43.8,-243.6,-3.4,-243.7,-49.9C-243.8,-96.5,-200.9,-142.5,-153.2,-169.2C-105.4,-196,-52.7,-203.5,-10,-191.6C32.8,-179.7,65.6,-148.5,90.8,-117.8Z" fill="#1a73ca" />
  </g>
</svg>
  