<?xml version="1.0" standalone="no"?>
<svg
  width="600"
  height="600"
  viewBox="0 0 600 600"
  xmlns="http://www.w3.org/2000/svg"
>
  <g transform="translate(300,300)">
    <path d="M128.9,-172.2C164.8,-151.2,190.4,-110.7,201.2,-67.6C212.1,-24.6,208.3,20.9,191.7,59.3C175.1,97.7,145.7,128.9,111.7,155.7C77.6,182.5,38.8,204.7,3,200.5C-32.7,196.4,-65.4,165.7,-110.3,142.5C-155.2,119.2,-212.2,103.3,-224.8,71.4C-237.4,39.5,-205.7,-8.5,-178,-46.7C-150.3,-84.9,-126.6,-113.2,-97.6,-136.5C-68.6,-159.7,-34.3,-177.9,6.1,-186.2C46.4,-194.6,92.9,-193.2,128.9,-172.2Z" fill="#1a73ca" />
  </g>
</svg>
  